<svg width="260" height="45" viewBox="0 0 260 45" fill="none" xmlns="http://www.w3.org/2000/svg">
<path d="M30.32 18.768C30.32 21.344 29.904 23.688 29.072 25.8C28.256 27.912 27.096 29.728 25.592 31.248C24.088 32.752 22.288 33.92 20.192 34.752C18.096 35.584 15.768 36 13.208 36H0.248V1.536H13.208C15.768 1.536 18.096 1.952 20.192 2.784C22.288 3.616 24.088 4.792 25.592 6.312C27.096 7.816 28.256 9.632 29.072 11.76C29.904 13.872 30.32 16.208 30.32 18.768ZM25.088 18.768C25.088 16.72 24.808 14.888 24.248 13.272C23.688 11.64 22.888 10.264 21.848 9.144C20.824 8.008 19.576 7.144 18.104 6.552C16.648 5.96 15.016 5.664 13.208 5.664H5.384V31.872H13.208C15.016 31.872 16.648 31.576 18.104 30.984C19.576 30.392 20.824 29.536 21.848 28.416C22.888 27.28 23.688 25.904 24.248 24.288C24.808 22.672 25.088 20.832 25.088 18.768ZM48.2983 25.176C46.3943 25.24 44.7783 25.392 43.4503 25.632C42.1223 25.856 41.0423 26.16 40.2103 26.544C39.3783 26.928 38.7783 27.384 38.4103 27.912C38.0423 28.424 37.8583 29 37.8583 29.64C37.8583 30.248 37.9543 30.776 38.1463 31.224C38.3543 31.656 38.6263 32.016 38.9622 32.304C39.3143 32.576 39.7223 32.776 40.1863 32.904C40.6503 33.032 41.1543 33.096 41.6983 33.096C42.4183 33.096 43.0743 33.024 43.6663 32.88C44.2743 32.736 44.8423 32.536 45.3703 32.28C45.8983 32.008 46.4023 31.68 46.8823 31.296C47.3623 30.912 47.8343 30.472 48.2983 29.976V25.176ZM34.5703 15.024C35.9303 13.728 37.4023 12.76 38.9863 12.12C40.5863 11.48 42.3383 11.16 44.2422 11.16C45.6343 11.16 46.8663 11.392 47.9383 11.856C49.0103 12.304 49.9143 12.936 50.6503 13.752C51.3863 14.568 51.9383 15.544 52.3063 16.68C52.6903 17.816 52.8823 19.072 52.8823 20.448V36H50.7943C50.3303 36 49.9783 35.928 49.7383 35.784C49.4983 35.624 49.3063 35.336 49.1623 34.92L48.6583 32.784C48.0343 33.36 47.4183 33.872 46.8103 34.32C46.2023 34.752 45.5623 35.128 44.8903 35.448C44.2343 35.752 43.5303 35.984 42.7783 36.144C42.0263 36.304 41.1943 36.384 40.2823 36.384C39.3223 36.384 38.4183 36.256 37.5703 36C36.7383 35.728 36.0103 35.32 35.3863 34.776C34.7623 34.232 34.2663 33.552 33.8983 32.736C33.5463 31.92 33.3703 30.968 33.3703 29.88C33.3703 28.92 33.6263 28 34.1383 27.12C34.6663 26.224 35.5143 25.424 36.6823 24.72C37.8663 24.016 39.4023 23.44 41.2903 22.992C43.1943 22.544 45.5303 22.288 48.2983 22.224V20.448C48.2983 18.608 47.9063 17.232 47.1223 16.32C46.3383 15.408 45.1863 14.952 43.6663 14.952C42.6423 14.952 41.7783 15.08 41.0743 15.336C40.3863 15.592 39.7863 15.88 39.2743 16.2C38.7783 16.504 38.3383 16.784 37.9543 17.04C37.5863 17.296 37.2023 17.424 36.8023 17.424C36.4823 17.424 36.2023 17.336 35.9623 17.16C35.7383 16.984 35.5543 16.776 35.4103 16.536L34.5703 15.024ZM64.0434 11.616V36H59.3634V11.616H64.0434ZM64.9314 4.08C64.9314 4.512 64.8434 4.928 64.6674 5.328C64.4914 5.712 64.2514 6.056 63.9474 6.36C63.6594 6.648 63.3154 6.88 62.9154 7.056C62.5154 7.216 62.0994 7.296 61.6674 7.296C61.2354 7.296 60.8274 7.216 60.4434 7.056C60.0594 6.88 59.7154 6.648 59.4114 6.36C59.1234 6.056 58.8914 5.712 58.7154 5.328C58.5554 4.928 58.4754 4.512 58.4754 4.08C58.4754 3.632 58.5554 3.216 58.7154 2.832C58.8914 2.432 59.1234 2.088 59.4114 1.8C59.7154 1.496 60.0594 1.264 60.4434 1.104C60.8274 0.927999 61.2354 0.839999 61.6674 0.839999C62.0994 0.839999 62.5154 0.927999 62.9154 1.104C63.3154 1.264 63.6594 1.496 63.9474 1.8C64.2514 2.088 64.4914 2.432 64.6674 2.832C64.8434 3.216 64.9314 3.632 64.9314 4.08ZM75.6193 0.575998V36H70.9153V0.575998H75.6193ZM103.616 11.616L90.0796 43.08C89.9356 43.432 89.7436 43.704 89.5036 43.896C89.2636 44.088 88.9116 44.184 88.4476 44.184H84.9676L89.4316 34.464L79.4236 11.616H83.5036C83.9036 11.616 84.2156 11.712 84.4396 11.904C84.6636 12.096 84.8236 12.312 84.9196 12.552L91.1116 27.192C91.2396 27.56 91.3596 27.936 91.4716 28.32C91.5996 28.688 91.7036 29.056 91.7836 29.424C91.8956 29.04 92.0156 28.664 92.1436 28.296C92.2716 27.912 92.4076 27.536 92.5516 27.168L98.5276 12.552C98.6396 12.28 98.8156 12.056 99.0556 11.88C99.2956 11.704 99.5676 11.616 99.8716 11.616H103.616Z" fill="#F8FBFF"/>
<path d="M112.33 18.648C112.33 20.552 112.586 22.264 113.098 23.784C113.61 25.288 114.338 26.568 115.282 27.624C116.242 28.664 117.394 29.464 118.738 30.024C120.098 30.584 121.626 30.864 123.322 30.864C125.018 30.864 126.538 30.584 127.882 30.024C129.242 29.464 130.394 28.664 131.338 27.624C132.282 26.568 133.01 25.288 133.522 23.784C134.034 22.264 134.29 20.552 134.29 18.648C134.29 16.744 134.034 15.04 133.522 13.536C133.01 12.016 132.282 10.728 131.338 9.672C130.394 8.616 129.242 7.808 127.882 7.248C126.538 6.688 125.018 6.408 123.322 6.408C121.626 6.408 120.098 6.688 118.738 7.248C117.394 7.808 116.242 8.616 115.282 9.672C114.338 10.728 113.61 12.016 113.098 13.536C112.586 15.04 112.33 16.744 112.33 18.648ZM142.69 42.792H137.362C136.594 42.792 135.898 42.688 135.274 42.48C134.666 42.272 134.106 41.888 133.594 41.328L128.506 35.712C127.69 35.936 126.85 36.104 125.986 36.216C125.138 36.328 124.25 36.384 123.322 36.384C120.698 36.384 118.306 35.944 116.146 35.064C113.986 34.168 112.13 32.928 110.578 31.344C109.042 29.76 107.85 27.888 107.002 25.728C106.154 23.552 105.73 21.192 105.73 18.648C105.73 16.104 106.154 13.752 107.002 11.592C107.85 9.416 109.042 7.536 110.578 5.952C112.13 4.368 113.986 3.136 116.146 2.256C118.306 1.36 120.698 0.912 123.322 0.912C125.082 0.912 126.738 1.12 128.29 1.536C129.842 1.936 131.266 2.512 132.562 3.264C133.858 4 135.018 4.904 136.042 5.976C137.082 7.032 137.962 8.216 138.682 9.528C139.402 10.84 139.946 12.264 140.314 13.8C140.698 15.336 140.89 16.952 140.89 18.648C140.89 20.2 140.73 21.688 140.41 23.112C140.09 24.52 139.626 25.84 139.018 27.072C138.426 28.304 137.698 29.44 136.834 30.48C135.97 31.504 134.986 32.408 133.882 33.192L142.69 42.792ZM166.488 11.376V36H162.864C162.08 36 161.584 35.64 161.376 34.92L160.968 32.952C159.96 33.976 158.848 34.808 157.632 35.448C156.416 36.072 154.984 36.384 153.336 36.384C151.992 36.384 150.8 36.16 149.76 35.712C148.736 35.248 147.872 34.6 147.168 33.768C146.464 32.936 145.928 31.952 145.56 30.816C145.208 29.664 145.032 28.4 145.032 27.024V11.376H150.96V27.024C150.96 28.528 151.304 29.696 151.992 30.528C152.696 31.344 153.744 31.752 155.136 31.752C156.16 31.752 157.12 31.528 158.016 31.08C158.912 30.616 159.76 29.984 160.56 29.184V11.376H166.488ZM183.262 10.992C185.086 10.992 186.742 11.288 188.23 11.88C189.734 12.472 191.014 13.312 192.07 14.4C193.141 15.488 193.965 16.816 194.542 18.384C195.118 19.952 195.406 21.704 195.406 23.64C195.406 25.592 195.118 27.352 194.542 28.92C193.965 30.488 193.141 31.824 192.07 32.928C191.014 34.032 189.734 34.88 188.23 35.472C186.742 36.064 185.086 36.36 183.262 36.36C181.422 36.36 179.75 36.064 178.246 35.472C176.742 34.88 175.454 34.032 174.382 32.928C173.326 31.824 172.502 30.488 171.91 28.92C171.334 27.352 171.046 25.592 171.046 23.64C171.046 21.704 171.334 19.952 171.91 18.384C172.502 16.816 173.326 15.488 174.382 14.4C175.454 13.312 176.742 12.472 178.246 11.88C179.75 11.288 181.422 10.992 183.262 10.992ZM183.262 31.8C185.31 31.8 186.822 31.112 187.798 29.736C188.79 28.36 189.286 26.344 189.286 23.688C189.286 21.032 188.79 19.008 187.798 17.616C186.822 16.224 185.31 15.528 183.262 15.528C181.182 15.528 179.638 16.232 178.63 17.64C177.638 19.032 177.142 21.048 177.142 23.688C177.142 26.328 177.638 28.344 178.63 29.736C179.638 31.112 181.182 31.8 183.262 31.8ZM207.667 36.384C205.523 36.384 203.875 35.784 202.723 34.584C201.587 33.368 201.019 31.696 201.019 29.568V15.816H198.499C198.179 15.816 197.907 15.712 197.683 15.504C197.459 15.296 197.347 14.984 197.347 14.568V12.216L201.307 11.568L202.555 4.848C202.635 4.528 202.787 4.28 203.011 4.104C203.235 3.928 203.523 3.84 203.875 3.84H206.947V11.592H213.523V15.816H206.947V29.16C206.947 29.928 207.131 30.528 207.499 30.96C207.883 31.392 208.403 31.608 209.059 31.608C209.427 31.608 209.731 31.568 209.971 31.488C210.227 31.392 210.443 31.296 210.619 31.2C210.811 31.104 210.979 31.016 211.123 30.936C211.267 30.84 211.411 30.792 211.555 30.792C211.731 30.792 211.875 30.84 211.987 30.936C212.099 31.016 212.219 31.144 212.347 31.32L214.123 34.2C213.259 34.92 212.267 35.464 211.147 35.832C210.027 36.2 208.867 36.384 207.667 36.384ZM232.995 20.856C232.995 20.088 232.883 19.368 232.659 18.696C232.451 18.008 232.131 17.408 231.699 16.896C231.267 16.384 230.715 15.984 230.043 15.696C229.387 15.392 228.619 15.24 227.739 15.24C226.027 15.24 224.675 15.728 223.683 16.704C222.707 17.68 222.083 19.064 221.811 20.856H232.995ZM221.691 24.432C221.787 25.696 222.011 26.792 222.363 27.72C222.715 28.632 223.179 29.392 223.755 30C224.331 30.592 225.011 31.04 225.795 31.344C226.595 31.632 227.475 31.776 228.435 31.776C229.395 31.776 230.219 31.664 230.907 31.44C231.611 31.216 232.219 30.968 232.731 30.696C233.259 30.424 233.715 30.176 234.099 29.952C234.499 29.728 234.883 29.616 235.251 29.616C235.747 29.616 236.115 29.8 236.355 30.168L238.059 32.328C237.403 33.096 236.667 33.744 235.851 34.272C235.035 34.784 234.179 35.2 233.283 35.52C232.403 35.824 231.499 36.04 230.571 36.168C229.659 36.296 228.771 36.36 227.907 36.36C226.195 36.36 224.603 36.08 223.131 35.52C221.659 34.944 220.379 34.104 219.291 33C218.203 31.88 217.347 30.504 216.723 28.872C216.099 27.224 215.787 25.32 215.787 23.16C215.787 21.48 216.059 19.904 216.603 18.432C217.147 16.944 217.923 15.656 218.931 14.568C219.955 13.464 221.195 12.592 222.651 11.952C224.123 11.312 225.779 10.992 227.619 10.992C229.171 10.992 230.603 11.24 231.915 11.736C233.227 12.232 234.355 12.96 235.299 13.92C236.243 14.864 236.979 16.032 237.507 17.424C238.051 18.8 238.323 20.376 238.323 22.152C238.323 23.048 238.227 23.656 238.035 23.976C237.843 24.28 237.475 24.432 236.931 24.432H221.691ZM257.796 16.176C257.636 16.432 257.468 16.616 257.292 16.728C257.116 16.824 256.892 16.872 256.62 16.872C256.332 16.872 256.02 16.792 255.684 16.632C255.364 16.472 254.988 16.296 254.556 16.104C254.124 15.896 253.628 15.712 253.068 15.552C252.524 15.392 251.876 15.312 251.124 15.312C249.956 15.312 249.036 15.56 248.364 16.056C247.708 16.552 247.38 17.2 247.38 18C247.38 18.528 247.548 18.976 247.884 19.344C248.236 19.696 248.692 20.008 249.252 20.28C249.828 20.552 250.476 20.8 251.196 21.024C251.916 21.232 252.644 21.464 253.38 21.72C254.132 21.976 254.868 22.272 255.588 22.608C256.308 22.928 256.948 23.344 257.508 23.856C258.084 24.352 258.54 24.952 258.876 25.656C259.228 26.36 259.404 27.208 259.404 28.2C259.404 29.384 259.188 30.48 258.756 31.488C258.34 32.48 257.716 33.344 256.884 34.08C256.052 34.8 255.02 35.368 253.788 35.784C252.572 36.184 251.164 36.384 249.564 36.384C248.716 36.384 247.884 36.304 247.068 36.144C246.268 36 245.492 35.792 244.74 35.52C244.004 35.248 243.316 34.928 242.676 34.56C242.052 34.192 241.5 33.792 241.02 33.36L242.388 31.104C242.564 30.832 242.772 30.624 243.012 30.48C243.252 30.336 243.556 30.264 243.924 30.264C244.292 30.264 244.636 30.368 244.956 30.576C245.292 30.784 245.676 31.008 246.108 31.248C246.54 31.488 247.044 31.712 247.62 31.92C248.212 32.128 248.956 32.232 249.852 32.232C250.556 32.232 251.156 32.152 251.652 31.992C252.164 31.816 252.58 31.592 252.9 31.32C253.236 31.048 253.476 30.736 253.62 30.384C253.78 30.016 253.86 29.64 253.86 29.256C253.86 28.68 253.684 28.208 253.332 27.84C252.996 27.472 252.54 27.152 251.964 26.88C251.404 26.608 250.756 26.368 250.02 26.16C249.3 25.936 248.556 25.696 247.788 25.44C247.036 25.184 246.292 24.888 245.556 24.552C244.836 24.2 244.188 23.76 243.612 23.232C243.052 22.704 242.596 22.056 242.244 21.288C241.908 20.52 241.74 19.592 241.74 18.504C241.74 17.496 241.94 16.536 242.34 15.624C242.74 14.712 243.324 13.92 244.092 13.248C244.876 12.56 245.844 12.016 246.996 11.616C248.164 11.2 249.508 10.992 251.028 10.992C252.724 10.992 254.268 11.272 255.66 11.832C257.052 12.392 258.212 13.128 259.14 14.04L257.796 16.176Z" fill="#3682F4"/>
</svg>
